<?xml version="1.0" encoding="utf-8"?>
<!-- Generator: Adobe Illustrator 19.0.0, SVG Export Plug-In . SVG Version: 6.00 Build 0)  -->
<svg version="1.1" id="Layer_1" xmlns="http://www.w3.org/2000/svg" xmlns:xlink="http://www.w3.org/1999/xlink" x="0px" y="0px"
	 viewBox="0 0 202.9 72" enable-background="new 0 0 202.9 72" xml:space="preserve">
<g>
	<defs>
		<rect id="SVGID_1_" width="202.9" height="72"/>
	</defs>
	<clipPath id="SVGID_2_">
		<use xlink:href="#SVGID_1_"  overflow="visible"/>
	</clipPath>
	<path clip-path="url(#SVGID_2_)" d="M75.2,63.1V66H75c-0.1-0.6-0.2-1-0.4-1.3c-0.2-0.3-0.4-0.6-0.8-0.8c-0.3-0.2-0.7-0.3-1-0.3
		c-0.4,0-0.7,0.1-1,0.4c-0.3,0.3-0.4,0.6-0.4,0.9c0,0.3,0.1,0.5,0.3,0.7c0.2,0.3,0.8,0.7,1.7,1.3c0.7,0.4,1.2,0.8,1.5,1
		c0.3,0.2,0.5,0.5,0.6,0.8c0.1,0.3,0.2,0.6,0.2,1c0,0.6-0.2,1.2-0.7,1.7C74.5,71.8,74,72,73.2,72c-0.2,0-0.4,0-0.6-0.1
		c-0.1,0-0.4-0.1-0.8-0.2c-0.4-0.1-0.6-0.2-0.7-0.2c-0.1,0-0.2,0-0.2,0.1c-0.1,0.1-0.1,0.2-0.1,0.4h-0.2v-2.9h0.2
		c0.1,0.6,0.2,1.1,0.4,1.4c0.2,0.3,0.4,0.6,0.8,0.8c0.4,0.2,0.7,0.3,1.2,0.3c0.5,0,0.9-0.1,1.2-0.4c0.3-0.3,0.4-0.6,0.4-1
		c0-0.2-0.1-0.4-0.2-0.6c-0.1-0.2-0.3-0.4-0.5-0.6c-0.2-0.1-0.6-0.4-1.2-0.8c-0.7-0.4-1.2-0.7-1.4-1c-0.3-0.2-0.5-0.5-0.7-0.8
		c-0.1-0.3-0.2-0.6-0.2-1c0-0.6,0.2-1.1,0.7-1.6c0.4-0.4,1-0.7,1.7-0.7c0.4,0,0.9,0.1,1.3,0.3c0.2,0.1,0.4,0.2,0.5,0.2
		c0.1,0,0.2,0,0.2-0.1c0.1-0.1,0.1-0.2,0.2-0.4H75.2z"/>
	<path clip-path="url(#SVGID_2_)" d="M80.1,71.6v0.2h-3.4v-0.2h0.3c0.3,0,0.6-0.1,0.7-0.3c0.1-0.1,0.1-0.5,0.1-1v-5.5
		c0-0.4,0-0.7-0.1-0.9c0-0.1-0.1-0.2-0.2-0.3c-0.2-0.1-0.4-0.2-0.5-0.2h-0.3v-0.2h3.4v0.2h-0.3c-0.3,0-0.6,0.1-0.7,0.3
		c-0.1,0.1-0.1,0.5-0.1,1v5.5c0,0.4,0,0.7,0.1,0.9c0,0.1,0.1,0.2,0.2,0.3c0.2,0.1,0.3,0.2,0.5,0.2H80.1z"/>
	<path clip-path="url(#SVGID_2_)" d="M80.7,63.3h2.2l4.8,6.4v-4.9c0-0.5-0.1-0.8-0.2-1c-0.1-0.2-0.4-0.3-0.7-0.3h-0.3v-0.2h2.8v0.2
		H89c-0.3,0-0.6,0.1-0.7,0.3c-0.1,0.1-0.1,0.4-0.1,0.9v7.2H88l-5.2-6.8v5.2c0,0.5,0.1,0.8,0.2,1c0.1,0.2,0.4,0.3,0.7,0.3h0.3v0.2
		h-2.8v-0.2h0.3c0.3,0,0.6-0.1,0.7-0.3c0.1-0.1,0.1-0.4,0.1-0.9v-5.9c-0.2-0.3-0.4-0.5-0.5-0.6c-0.1-0.1-0.3-0.2-0.5-0.3
		c-0.1,0-0.3-0.1-0.5-0.1V63.3z"/>
	<path clip-path="url(#SVGID_2_)" d="M96.5,63.1l0.2,2.9h-0.2c-0.2-0.9-0.6-1.5-1-1.9c-0.4-0.4-1-0.6-1.6-0.6c-0.5,0-1,0.1-1.4,0.4
		c-0.4,0.3-0.8,0.7-1,1.4c-0.2,0.6-0.4,1.4-0.4,2.3c0,0.8,0.1,1.4,0.3,2c0.2,0.6,0.6,1,1,1.3c0.5,0.3,1,0.5,1.6,0.5
		c0.5,0,1-0.1,1.4-0.4c0.4-0.2,0.8-0.7,1.3-1.4l0.2,0.1c-0.4,0.8-0.9,1.3-1.4,1.7c-0.5,0.4-1.2,0.5-1.9,0.5c-1.3,0-2.3-0.5-3.1-1.6
		c-0.5-0.8-0.8-1.7-0.8-2.7c0-0.8,0.2-1.6,0.5-2.3c0.4-0.7,0.8-1.3,1.5-1.7c0.6-0.4,1.3-0.6,2-0.6c0.6,0,1.1,0.2,1.7,0.5
		c0.2,0.1,0.3,0.1,0.3,0.1c0.1,0,0.2,0,0.3-0.1c0.1-0.1,0.2-0.3,0.2-0.5H96.5z"/>
	<path clip-path="url(#SVGID_2_)" d="M99.8,63.8v3.4h1.7c0.5,0,0.8-0.1,0.9-0.2c0.2-0.2,0.3-0.5,0.3-1h0.2v3h-0.2
		c-0.1-0.4-0.1-0.7-0.2-0.8c-0.1-0.1-0.2-0.3-0.3-0.3c-0.2-0.1-0.4-0.1-0.7-0.1h-1.7v2.8c0,0.4,0,0.6,0,0.7c0,0.1,0.1,0.1,0.2,0.2
		c0.1,0,0.2,0.1,0.4,0.1h1.3c0.4,0,0.8,0,1-0.1c0.2-0.1,0.4-0.2,0.6-0.4c0.2-0.3,0.5-0.6,0.7-1.2h0.2l-0.7,2.1h-6.1v-0.2h0.3
		c0.2,0,0.4,0,0.5-0.1c0.1-0.1,0.2-0.2,0.3-0.3c0-0.1,0.1-0.4,0.1-0.8v-5.5c0-0.5,0-0.9-0.2-1c-0.1-0.2-0.4-0.3-0.7-0.3h-0.3v-0.2
		h6.1l0.1,1.9h-0.2c-0.1-0.4-0.2-0.8-0.3-0.9c-0.1-0.2-0.2-0.3-0.4-0.4c-0.2-0.1-0.4-0.1-0.8-0.1H99.8z"/>
	<path clip-path="url(#SVGID_2_)" d="M109,64.1l1.9-1h0.2v7.2c0,0.5,0,0.8,0.1,0.9c0,0.1,0.1,0.2,0.2,0.3c0.1,0.1,0.4,0.1,0.7,0.1
		v0.2h-3v-0.2c0.4,0,0.6,0,0.7-0.1c0.1-0.1,0.2-0.1,0.2-0.2c0-0.1,0.1-0.4,0.1-0.9v-4.6c0-0.6,0-1-0.1-1.2c0-0.1-0.1-0.2-0.1-0.3
		c-0.1-0.1-0.2-0.1-0.3-0.1c-0.1,0-0.3,0.1-0.6,0.2L109,64.1z"/>
	<path clip-path="url(#SVGID_2_)" d="M113.6,72v-0.2c0.5,0,1-0.1,1.4-0.4c0.4-0.2,0.9-0.7,1.3-1.3c0.4-0.6,0.7-1.3,0.9-2
		c-0.6,0.4-1.2,0.6-1.7,0.6c-0.6,0-1-0.2-1.4-0.7c-0.4-0.5-0.6-1.1-0.6-1.8c0-0.7,0.2-1.4,0.6-2c0.5-0.7,1.1-1.1,1.9-1.1
		c0.7,0,1.2,0.3,1.7,0.9c0.6,0.7,0.9,1.6,0.9,2.6c0,0.9-0.2,1.8-0.7,2.6c-0.4,0.8-1,1.5-1.8,2c-0.6,0.4-1.3,0.7-2.1,0.7H113.6z
		 M117.2,67.6c0.1-0.5,0.1-1,0.1-1.3c0-0.4-0.1-0.8-0.2-1.3c-0.1-0.5-0.3-0.8-0.5-1.1c-0.2-0.2-0.5-0.4-0.8-0.4
		c-0.3,0-0.7,0.2-0.9,0.5c-0.3,0.3-0.4,0.8-0.4,1.5c0,0.9,0.2,1.6,0.5,2.1c0.3,0.4,0.6,0.5,0.9,0.5c0.2,0,0.4,0,0.6-0.1
		C116.8,67.9,117.1,67.8,117.2,67.6"/>
	<path clip-path="url(#SVGID_2_)" d="M120.1,64.1l1.9-1h0.2v7.2c0,0.5,0,0.8,0.1,0.9c0,0.1,0.1,0.2,0.2,0.3c0.1,0.1,0.4,0.1,0.7,0.1
		v0.2h-3v-0.2c0.4,0,0.6,0,0.7-0.1c0.1-0.1,0.2-0.1,0.2-0.2c0-0.1,0.1-0.4,0.1-0.9v-4.6c0-0.6,0-1-0.1-1.2c0-0.1-0.1-0.2-0.2-0.3
		c-0.1-0.1-0.2-0.1-0.3-0.1c-0.1,0-0.3,0.1-0.6,0.2L120.1,64.1z"/>
	<path clip-path="url(#SVGID_2_)" d="M124.7,72v-0.2c0.5,0,1-0.1,1.4-0.4c0.4-0.2,0.9-0.7,1.3-1.3c0.4-0.6,0.7-1.3,0.9-2
		c-0.6,0.4-1.2,0.6-1.7,0.6c-0.6,0-1-0.2-1.4-0.7c-0.4-0.5-0.6-1.1-0.6-1.8c0-0.7,0.2-1.4,0.6-2c0.5-0.7,1.1-1.1,1.9-1.1
		c0.6,0,1.2,0.3,1.7,0.9c0.6,0.7,0.9,1.6,0.9,2.6c0,0.9-0.2,1.8-0.6,2.6c-0.4,0.8-1,1.5-1.8,2c-0.6,0.4-1.3,0.7-2.1,0.7H124.7z
		 M128.4,67.6c0.1-0.5,0.1-1,0.1-1.3c0-0.4-0.1-0.8-0.2-1.3c-0.1-0.5-0.3-0.8-0.5-1.1c-0.2-0.2-0.5-0.4-0.8-0.4
		c-0.3,0-0.7,0.2-0.9,0.5c-0.3,0.3-0.4,0.8-0.4,1.5c0,0.9,0.2,1.6,0.5,2.1c0.3,0.4,0.6,0.5,0.9,0.5c0.2,0,0.4,0,0.6-0.1
		C128,67.9,128.2,67.8,128.4,67.6"/>
	<line clip-path="url(#SVGID_2_)" fill="none" stroke="#0081C9" stroke-width="0.725" x1="202.9" y1="31.8" x2="0" y2="31.8"/>
	<path clip-path="url(#SVGID_2_)" d="M32.8,36.5l0.1,2.4h-0.3c-0.1-0.4-0.1-0.7-0.2-0.9c-0.2-0.3-0.4-0.5-0.6-0.6
		c-0.3-0.1-0.6-0.2-1-0.2h-1.4v7.8c0,0.6,0.1,1,0.2,1.2c0.2,0.2,0.5,0.3,0.9,0.3h0.4v0.3h-4.3v-0.3h0.4c0.4,0,0.7-0.1,0.9-0.4
		c0.1-0.2,0.2-0.5,0.2-1.1v-7.8h-1.2c-0.5,0-0.8,0-1,0.1c-0.3,0.1-0.5,0.3-0.7,0.5c-0.2,0.3-0.3,0.6-0.3,1.1h-0.3l0.1-2.4H32.8z"/>
	<path clip-path="url(#SVGID_2_)" d="M52.2,46.7h-2.7L46,41.9c-0.3,0-0.5,0-0.6,0c-0.1,0-0.1,0-0.2,0c-0.1,0-0.2,0-0.2,0v3
		c0,0.6,0.1,1,0.2,1.2c0.2,0.2,0.5,0.3,0.9,0.3h0.4v0.3H42v-0.3h0.4c0.4,0,0.7-0.1,0.9-0.4c0.1-0.2,0.2-0.5,0.2-1.1v-6.6
		c0-0.6-0.1-1-0.2-1.2c-0.2-0.2-0.5-0.3-0.9-0.3H42v-0.3h3.7c1.1,0,1.9,0.1,2.4,0.2c0.5,0.2,1,0.4,1.3,0.9c0.4,0.4,0.5,0.9,0.5,1.5
		c0,0.6-0.2,1.2-0.6,1.6c-0.4,0.5-1,0.8-1.9,1l2.1,2.9c0.5,0.7,0.9,1.1,1.2,1.3c0.3,0.2,0.8,0.4,1.4,0.4V46.7z M44.9,41.4
		c0.1,0,0.2,0,0.2,0c0.1,0,0.1,0,0.2,0c1,0,1.7-0.2,2.2-0.6c0.5-0.4,0.7-1,0.7-1.6c0-0.6-0.2-1.2-0.6-1.6c-0.4-0.4-0.9-0.6-1.6-0.6
		c-0.3,0-0.7,0-1.2,0.1V41.4z"/>
	<path clip-path="url(#SVGID_2_)" d="M67.6,43.2h-4l-0.7,1.6c-0.2,0.4-0.3,0.7-0.3,0.9c0,0.2,0.1,0.3,0.2,0.4c0.1,0.1,0.5,0.2,1,0.2
		v0.3h-3.2v-0.3c0.4-0.1,0.7-0.2,0.8-0.3c0.3-0.2,0.5-0.7,0.9-1.5l3.6-8.4h0.3l3.6,8.5c0.3,0.7,0.5,1.1,0.8,1.3
		c0.2,0.2,0.6,0.3,1,0.3v0.3h-4v-0.3c0.4,0,0.7-0.1,0.8-0.2c0.1-0.1,0.2-0.3,0.2-0.4c0-0.2-0.1-0.6-0.3-1L67.6,43.2z M67.3,42.7
		l-1.7-4.1l-1.8,4.1H67.3z"/>
	<path clip-path="url(#SVGID_2_)" d="M87.3,36.7v-0.3h3.6v0.3h-0.4c-0.4,0-0.7,0.2-0.9,0.5c-0.1,0.2-0.2,0.5-0.2,1.1v4.1
		c0,1-0.1,1.8-0.3,2.4c-0.2,0.6-0.6,1-1.2,1.5c-0.6,0.4-1.4,0.6-2.4,0.6c-1.1,0-2-0.2-2.5-0.6c-0.6-0.4-1-0.9-1.2-1.6
		c-0.2-0.4-0.2-1.3-0.2-2.5v-4c0-0.6-0.1-1-0.3-1.2c-0.2-0.2-0.5-0.3-0.8-0.3H80v-0.3h4.4v0.3h-0.4c-0.4,0-0.7,0.1-0.9,0.4
		C83,37.3,83,37.7,83,38.3v4.4c0,0.4,0,0.9,0.1,1.4c0.1,0.5,0.2,0.9,0.4,1.2c0.2,0.3,0.5,0.5,0.8,0.7c0.4,0.2,0.8,0.3,1.3,0.3
		c0.7,0,1.3-0.1,1.8-0.4c0.5-0.3,0.9-0.7,1.1-1.1c0.2-0.5,0.3-1.2,0.3-2.3v-4.1c0-0.6-0.1-1-0.2-1.2c-0.2-0.2-0.5-0.3-0.9-0.3H87.3z
		"/>
	<path clip-path="url(#SVGID_2_)" d="M110,46.7h-2.7l-3.5-4.8c-0.3,0-0.5,0-0.6,0c-0.1,0-0.1,0-0.2,0c-0.1,0-0.2,0-0.2,0v3
		c0,0.6,0.1,1,0.2,1.2c0.2,0.2,0.5,0.3,0.9,0.3h0.4v0.3h-4.4v-0.3h0.4c0.4,0,0.7-0.1,0.9-0.4c0.1-0.2,0.2-0.5,0.2-1.1v-6.6
		c0-0.6-0.1-1-0.2-1.2c-0.2-0.2-0.5-0.3-0.9-0.3h-0.4v-0.3h3.7c1.1,0,1.9,0.1,2.4,0.2c0.5,0.2,1,0.4,1.3,0.9
		c0.4,0.4,0.5,0.9,0.5,1.5c0,0.6-0.2,1.2-0.6,1.6c-0.4,0.5-1,0.8-1.9,1l2.1,2.9c0.5,0.7,0.9,1.1,1.2,1.3c0.3,0.2,0.8,0.4,1.4,0.4
		V46.7z M102.7,41.4c0.1,0,0.2,0,0.2,0c0.1,0,0.1,0,0.2,0c1,0,1.7-0.2,2.2-0.6c0.5-0.4,0.7-1,0.7-1.6c0-0.6-0.2-1.2-0.6-1.6
		c-0.4-0.4-0.9-0.6-1.6-0.6c-0.3,0-0.7,0-1.2,0.1V41.4z"/>
	<path clip-path="url(#SVGID_2_)" d="M123.1,46.4v0.3h-4.4v-0.3h0.4c0.4,0,0.7-0.1,0.9-0.4c0.1-0.2,0.2-0.5,0.2-1.2v-6.6
		c0-0.5,0-0.9-0.1-1c0-0.1-0.2-0.2-0.3-0.3c-0.2-0.1-0.5-0.2-0.7-0.2h-0.4v-0.3h4.4v0.3h-0.4c-0.4,0-0.7,0.1-0.9,0.4
		c-0.1,0.2-0.2,0.5-0.2,1.2v6.6c0,0.5,0,0.9,0.1,1c0,0.1,0.2,0.2,0.3,0.3c0.2,0.1,0.4,0.2,0.7,0.2H123.1z"/>
	<path clip-path="url(#SVGID_2_)" d="M132.6,36.5h2.8l6.2,7.7v-5.9c0-0.6-0.1-1-0.2-1.2c-0.2-0.2-0.5-0.3-0.9-0.3h-0.4v-0.3h3.6v0.3
		h-0.4c-0.4,0-0.7,0.1-0.9,0.4c-0.1,0.2-0.2,0.5-0.2,1.1v8.6H142l-6.7-8.2v6.3c0,0.6,0.1,1,0.2,1.2c0.2,0.2,0.5,0.3,0.9,0.3h0.4v0.3
		h-3.6v-0.3h0.4c0.4,0,0.7-0.1,0.9-0.4c0.1-0.2,0.2-0.5,0.2-1.1v-7.1c-0.3-0.3-0.5-0.6-0.7-0.7c-0.2-0.1-0.4-0.2-0.7-0.3
		c-0.1,0-0.4-0.1-0.7-0.1V36.5z"/>
	<path clip-path="url(#SVGID_2_)" d="M161.3,36.2l0.3,3.2h-0.3c-0.3-0.8-0.6-1.4-1-1.8c-0.6-0.6-1.4-0.9-2.3-0.9
		c-1.3,0-2.3,0.5-3,1.5c-0.6,0.9-0.9,1.9-0.9,3.1c0,1,0.2,1.9,0.6,2.7c0.4,0.8,0.9,1.4,1.5,1.8c0.6,0.4,1.2,0.6,1.9,0.6
		c0.4,0,0.7,0,1.1-0.1c0.4-0.1,0.7-0.2,1-0.4v-2.9c0-0.5,0-0.8-0.1-1c-0.1-0.2-0.2-0.3-0.4-0.4c-0.2-0.1-0.5-0.1-0.9-0.1v-0.3h4v0.3
		h-0.2c-0.4,0-0.7,0.1-0.8,0.4c-0.1,0.2-0.2,0.6-0.2,1.1V46c-0.6,0.3-1.1,0.5-1.7,0.7c-0.6,0.1-1.2,0.2-1.9,0.2
		c-2,0-3.5-0.6-4.5-1.9c-0.8-0.9-1.1-2-1.1-3.3c0-0.9,0.2-1.8,0.6-2.6c0.5-1,1.2-1.7,2.1-2.3c0.7-0.4,1.6-0.7,2.6-0.7
		c0.4,0,0.7,0,1,0.1c0.3,0.1,0.7,0.2,1.3,0.4c0.3,0.1,0.5,0.2,0.6,0.2c0.1,0,0.2,0,0.2-0.1c0.1-0.1,0.1-0.3,0.1-0.5H161.3z"/>
	<path clip-path="url(#SVGID_2_)" d="M174.8,37v4h2.2c0.6,0,1-0.1,1.2-0.3c0.3-0.2,0.4-0.6,0.4-1.2h0.3v3.6h-0.3
		c-0.1-0.5-0.1-0.8-0.2-1c-0.1-0.2-0.2-0.3-0.4-0.4c-0.2-0.1-0.5-0.2-0.9-0.2h-2.2V45c0,0.5,0,0.7,0.1,0.8c0,0.1,0.1,0.2,0.2,0.2
		c0.1,0.1,0.3,0.1,0.6,0.1h1.7c0.6,0,1,0,1.3-0.1c0.3-0.1,0.5-0.2,0.8-0.5c0.3-0.3,0.6-0.8,1-1.4h0.3l-0.9,2.6h-7.9v-0.3h0.4
		c0.2,0,0.5-0.1,0.7-0.2c0.2-0.1,0.3-0.2,0.3-0.4c0.1-0.2,0.1-0.5,0.1-1v-6.6c0-0.6-0.1-1-0.2-1.2c-0.2-0.2-0.5-0.3-0.9-0.3h-0.4
		v-0.3h7.9l0.1,2.2h-0.3c-0.1-0.5-0.2-0.9-0.3-1.1c-0.1-0.2-0.3-0.4-0.6-0.5c-0.2-0.1-0.6-0.1-1.1-0.1H174.8z"/>
	<path clip-path="url(#SVGID_2_)" d="M29.8,2.1v10.5h3.9c0.9,0,1.5-0.2,2-0.7c0.4-0.5,0.7-1.5,0.8-2.9H37v9h-0.6
		c0-1-0.1-1.8-0.3-2.3s-0.5-0.8-0.8-1.1c-0.4-0.2-0.9-0.4-1.6-0.4h-3.9v8.4c0,1.3,0.1,2.2,0.2,2.7c0.1,0.3,0.3,0.6,0.7,0.8
		c0.5,0.3,0.9,0.5,1.4,0.5h0.8v0.7h-9.1v-0.7h0.8c0.9,0,1.5-0.3,1.9-1c0.3-0.4,0.4-1.4,0.4-3V5.3c0-1.3-0.1-2.2-0.2-2.7
		c-0.1-0.3-0.3-0.6-0.6-0.8c-0.5-0.3-0.9-0.5-1.4-0.5h-0.8V0.6h15.8l0.2,5.9h-0.5c-0.3-1.2-0.6-2.2-0.9-2.7c-0.4-0.6-0.8-1-1.3-1.3
		c-0.5-0.3-1.3-0.4-2.5-0.4H29.8z"/>
	<path clip-path="url(#SVGID_2_)" d="M55.5,26.5v0.7h-9.1v-0.7h0.8c0.9,0,1.5-0.3,1.9-1c0.2-0.4,0.4-1.4,0.4-3V5.3
		c0-1.3-0.1-2.2-0.2-2.7c-0.1-0.3-0.3-0.6-0.6-0.8c-0.5-0.3-0.9-0.5-1.4-0.5h-0.8V0.6h9.1v0.7h-0.8c-0.9,0-1.5,0.3-1.9,1
		c-0.3,0.4-0.4,1.4-0.4,3v17.2c0,1.3,0.1,2.2,0.2,2.7c0.1,0.3,0.3,0.6,0.7,0.8c0.5,0.3,0.9,0.5,1.4,0.5H55.5z"/>
	<path clip-path="url(#SVGID_2_)" d="M75.5,0v9.2h-0.6c-0.2-1.8-0.5-3.2-1-4.2c-0.5-1-1.2-1.9-2.1-2.5C70.9,1.9,70,1.6,69,1.6
		c-1.1,0-2,0.4-2.7,1.2c-0.7,0.8-1.1,1.8-1.1,2.8c0,0.8,0.2,1.6,0.7,2.2c0.6,1,2.2,2.3,4.6,3.9c2,1.3,3.3,2.4,4.1,3.1
		c0.7,0.7,1.3,1.6,1.7,2.5c0.4,1,0.6,2,0.6,3c0,2-0.6,3.8-1.9,5.2c-1.2,1.5-2.9,2.2-4.8,2.2c-0.6,0-1.2-0.1-1.7-0.2
		c-0.3-0.1-1-0.3-2-0.7c-1-0.4-1.7-0.6-1.9-0.6c-0.3,0-0.5,0.1-0.6,0.3c-0.2,0.2-0.3,0.6-0.3,1.2H63v-9.1h0.6
		c0.3,1.9,0.6,3.3,1.1,4.3c0.5,0.9,1.2,1.7,2.1,2.4c0.9,0.6,2,0.9,3.1,0.9c1.3,0,2.3-0.4,3.1-1.3c0.8-0.9,1.1-1.9,1.1-3.1
		c0-0.7-0.1-1.3-0.4-2c-0.3-0.7-0.7-1.3-1.3-1.9c-0.4-0.4-1.5-1.2-3.3-2.5c-1.8-1.3-3.1-2.3-3.9-3.1c-0.8-0.8-1.4-1.6-1.7-2.5
		c-0.4-0.9-0.6-1.9-0.6-3c0-1.9,0.6-3.6,1.8-4.9C65.7,0.7,67.2,0,69,0c1.1,0,2.3,0.3,3.6,1c0.6,0.3,1,0.5,1.2,0.5
		c0.3,0,0.5-0.1,0.7-0.3C74.6,1,74.8,0.6,74.9,0H75.5z"/>
	<path clip-path="url(#SVGID_2_)" d="M101.8,0l0.5,9.1h-0.5c-0.6-2.7-1.6-4.7-2.8-5.9c-1.2-1.2-2.6-1.8-4.3-1.8
		c-1.4,0-2.7,0.4-3.8,1.3c-1.1,0.9-2,2.3-2.7,4.3c-0.7,2-1,4.4-1,7.3c0,2.4,0.3,4.5,0.9,6.3c0.6,1.8,1.5,3.1,2.8,4.1
		c1.2,0.9,2.7,1.4,4.2,1.4c1.4,0,2.6-0.4,3.7-1.1c1.1-0.7,2.2-2.2,3.5-4.4l0.5,0.4c-1.1,2.4-2.3,4.1-3.7,5.2S96,27.8,94,27.8
		c-3.5,0-6.2-1.6-8.2-4.9c-1.4-2.4-2.2-5.3-2.2-8.6c0-2.7,0.5-5.1,1.4-7.3c1-2.2,2.3-4,3.9-5.2C90.7,0.6,92.5,0,94.5,0
		C96,0,97.5,0.5,99,1.4c0.4,0.3,0.8,0.4,0.9,0.4c0.3,0,0.5-0.1,0.7-0.4c0.3-0.4,0.5-0.8,0.6-1.5H101.8z"/>
	<path clip-path="url(#SVGID_2_)" d="M114.8,13h9.9V5.3c0-1.4-0.1-2.3-0.2-2.7c-0.1-0.3-0.3-0.6-0.7-0.8c-0.5-0.3-0.9-0.5-1.4-0.5
		h-0.8V0.6h9.1v0.7H130c-0.5,0-1,0.2-1.4,0.5c-0.3,0.2-0.6,0.5-0.7,1c-0.1,0.4-0.2,1.3-0.2,2.6v17.2c0,1.3,0.1,2.2,0.2,2.7
		c0.1,0.3,0.3,0.6,0.6,0.8c0.5,0.3,0.9,0.5,1.4,0.5h0.8v0.7h-9.1v-0.7h0.8c0.9,0,1.5-0.3,1.9-1c0.3-0.4,0.4-1.4,0.4-3v-8.1h-9.9v8.1
		c0,1.3,0.1,2.2,0.2,2.7c0.1,0.3,0.3,0.6,0.7,0.8c0.5,0.3,0.9,0.5,1.4,0.5h0.8v0.7h-9.1v-0.7h0.8c0.9,0,1.5-0.3,1.9-1
		c0.3-0.4,0.4-1.4,0.4-3V5.3c0-1.4-0.1-2.3-0.2-2.7c-0.1-0.3-0.3-0.6-0.6-0.8c-0.5-0.3-0.9-0.5-1.4-0.5h-0.8V0.6h9.1v0.7h-0.8
		c-0.5,0-1,0.2-1.4,0.5c-0.3,0.2-0.5,0.5-0.7,1c-0.1,0.4-0.2,1.3-0.2,2.6V13z"/>
	<path clip-path="url(#SVGID_2_)" d="M142.6,2.1v10.5h4.7c1.2,0,2-0.2,2.4-0.7c0.5-0.6,0.8-1.7,0.9-3.2h0.6V18h-0.6
		c-0.1-1.3-0.3-2.1-0.4-2.5c-0.2-0.5-0.5-0.8-0.9-1.1c-0.4-0.3-1.1-0.4-2-0.4h-4.7v8.8c0,1.2,0,1.9,0.1,2.2c0.1,0.3,0.2,0.5,0.4,0.6
		c0.2,0.1,0.6,0.2,1.2,0.2h3.6c1.2,0,2.1-0.1,2.6-0.3c0.5-0.2,1.1-0.6,1.6-1.2c0.6-0.8,1.3-2,2-3.7h0.6l-1.8,6.7h-16.4v-0.7h0.8
		c0.5,0,1-0.2,1.4-0.5c0.3-0.2,0.6-0.5,0.7-0.9c0.1-0.4,0.2-1.3,0.2-2.6V5.2c0-1.7-0.1-2.7-0.4-3.1c-0.4-0.5-1-0.8-1.9-0.8h-0.8V0.6
		h16.4l0.2,5.8h-0.6c-0.2-1.4-0.5-2.4-0.7-2.9c-0.3-0.5-0.7-0.9-1.2-1.2c-0.4-0.2-1.2-0.3-2.2-0.3H142.6z"/>
	<path clip-path="url(#SVGID_2_)" d="M181.5,27.2h-5.7l-7.2-12.4c-0.5,0-1,0-1.3,0c-0.1,0-0.3,0-0.4,0c-0.2,0-0.3,0-0.5,0v7.7
		c0,1.7,0.1,2.7,0.4,3.1c0.4,0.6,1,0.9,1.8,0.9h0.8v0.7h-9.1v-0.7h0.8c0.9,0,1.5-0.4,1.9-1.1c0.2-0.4,0.3-1.4,0.3-2.9V5.3
		c0-1.7-0.1-2.7-0.4-3.1c-0.4-0.6-1-0.9-1.8-0.9h-0.8V0.6h7.7c2.3,0,3.9,0.2,5,0.6c1.1,0.4,2,1.2,2.7,2.3c0.7,1.1,1.1,2.4,1.1,4
		c0,1.6-0.4,3.1-1.3,4.3c-0.9,1.2-2.2,2.1-4,2.6l4.4,7.6c1,1.8,1.9,2.9,2.6,3.5c0.7,0.6,1.7,0.9,2.8,1.1V27.2z M166.4,13.5
		c0.2,0,0.4,0,0.5,0c0.1,0,0.3,0,0.4,0c2,0,3.6-0.5,4.6-1.6c1-1.1,1.5-2.5,1.5-4.2c0-1.7-0.4-3-1.2-4.1c-0.8-1-1.9-1.6-3.3-1.6
		c-0.6,0-1.4,0.1-2.5,0.4V13.5z"/>
</g>
</svg>
