<?xml version="1.0" encoding="iso-8859-1"?>
<!DOCTYPE svg PUBLIC "-//W3C//DTD SVG 1.1//EN" "http://www.w3.org/Graphics/SVG/1.1/DTD/svg11.dtd">
<svg xmlns="http://www.w3.org/2000/svg" xmlns:xlink= "http://www.w3.org/1999/xlink" id="dimensions" viewBox="0 0 30 30" width="30" height="30">
    <g>
        <path d="M 10.7273 10 L 12 11.3333 L 8.5 15 L 21.5 15 L 18 11.3333 L 19.2727 10 L 25 16 L 19.2727 22 L 18 20.6667 L 21.5 17 L 8.5 17 L 12 20.6667 L 10.7273 22 L 5 16 L 10.7273 10 ZM 1 16 C 1 21.5229 7.2679 26 15 26 C 22.7321 26 29 21.5229 29 16 C 29 10.4771 22.7321 6 15 6 C 7.2679 6 1 10.4771 1 16 Z" className="shadow"></path>
        <path d="M 10.7273 9 L 12 10.3333 L 8.5 14 L 21.5 14 L 18 10.3333 L 19.2727 9 L 25 15 L 19.2727 21 L 18 19.6667 L 21.5 16 L 8.5 16 L 12 19.6667 L 10.7273 21 L 5 15 L 10.7273 9 ZM 1 15 C 1 20.5229 7.2679 25 15 25 C 22.7321 25 29 20.5229 29 15 C 29 9.4771 22.7321 5 15 5 C 7.2679 5 1 9.4771 1 15 Z" className="icon"></path>
        <path opacity="0.102" d="M 11.525 20.165 L 10.7273 21 L 5.475 15.5 L 5 16 L 10.7273 22 L 12 20.6667 L 11.525 20.165 ZM 20.545 17 L 21.5 16 L 8.5 16 L 9.455 17 L 20.545 17 ZM 24.525 15.5 L 19.2727 21 L 18.475 20.165 L 18 20.6667 L 19.2727 22 L 25 16 L 24.525 15.5 ZM 20.545 14 L 21.5 14 L 18.475 10.835 L 18 11.3333 L 20.545 14 ZM 11.525 10.835 L 8.5 14 L 9.455 14 L 12 11.3333 L 11.525 10.835 ZM 1 15 C 1 15.1677 1.0036 15.3344 1.015 15.5 C 1.3797 10.2094 7.5026 6 15 6 C 22.4974 6 28.6203 10.2094 28.985 15.5 C 28.9964 15.3344 29 15.1677 29 15 C 29 9.4771 22.7321 5 15 5 C 7.2679 5 1 9.4771 1 15 Z" className="highlight"></path>
    </g>
</svg>