<?xml version="1.0" encoding="iso-8859-1"?>
<!DOCTYPE svg PUBLIC "-//W3C//DTD SVG 1.1//EN" "http://www.w3.org/Graphics/SVG/1.1/DTD/svg11.dtd">
<svg xmlns="http://www.w3.org/2000/svg" xmlns:xlink= "http://www.w3.org/1999/xlink" id="engraving" viewBox="0 0 30 30" width="30" height="30">
    <g fill="currentColor">
        <path d="M 24.8125 25.5 C 25.25 25.8438 25.875 26 26.6719 26 C 27.3281 26 27.9375 25.8438 28.4688 25.5313 C 29 25.2188 29.5 24.7031 30 24 L 29 24 C 28.6406 24 28.4063 23.9688 28.3125 23.8906 C 28.2031 23.8281 28.125 23.7031 28.0781 23.5469 C 28.0156 23.3906 28 23.0156 28 22.4063 L 28 17.2656 C 28 15.8438 27.9219 14.9375 27.7969 14.5313 C 27.5625 13.9063 27.0625 13.3281 26.3125 12.7969 C 25.5625 12.2656 24.5313 12 23.25 12 C 22.1719 12 21.1406 12.1563 20.1563 12.4375 C 19.1563 12.7344 18.3906 13.1563 17.8281 13.7031 C 17.2656 14.25 17 14.8125 17 15.4063 C 17 15.8438 17.2031 16.2188 17.625 16.5313 C 18.0313 16.8438 18.5469 17 19.1719 17 C 19.7344 16.9219 20.2031 16.7656 20.5625 16.5156 C 20.9219 16.2656 21.1094 15.9531 21.1094 15.5469 C 21.1094 15.2188 20.9219 14.875 20.5469 14.5156 C 20.2656 14.2656 20.1406 14.0625 20.1406 13.875 C 20.1406 13.6875 20.2656 13.5156 20.5156 13.3594 C 20.9219 13.125 21.4531 13 22.1094 13 C 22.5 13 22.8594 13.0938 23.1719 13.2813 C 23.4844 13.4688 23.7031 13.6719 23.8281 13.9219 C 23.9375 14.1719 24 14.7813 24 15.7344 L 24 17 C 21.0625 18.4063 19.1719 19.5469 18.2969 20.3906 C 17.4219 21.2344 17 22.2031 17 23.2656 C 17 24.0469 17.25 24.7031 17.75 25.2188 C 18.25 25.75 18.875 26 19.6406 26 C 20.9219 26 22.375 25.3438 24 24 C 24.0938 24.6719 24.3594 25.1719 24.8125 25.5 ZM 22.4063 24 C 22 24 21.6719 23.8438 21.4531 23.5313 C 21.1406 23.1406 21 22.6719 21 22.1406 C 21 21.5156 21.1719 20.9063 21.5313 20.2813 C 22.0625 19.3594 22.8906 18.4844 24 17.6719 L 24 23 C 23.3906 23.6719 22.8594 24 22.4063 24 ZM 11.1988 22.8906 C 11.4258 23.4063 11.5393 23.7031 11.5519 23.7656 C 11.6024 23.9219 11.6276 24.0625 11.6276 24.2031 C 11.6276 24.4375 11.5393 24.6094 11.3628 24.7344 C 11.1105 24.9219 10.6691 25 10.0512 25 L 9.7359 25 L 9.7359 26 L 17 26 L 17 25 C 16.5082 24.9688 16.1298 24.8438 15.865 24.6094 C 15.5119 24.3281 15.0579 23.6094 14.503 22.4844 L 8.9162 6 L 8.109 6 L 2.7871 22.0938 C 2.2322 23.2344 1.7782 23.9844 1.4125 24.3438 C 1.0341 24.7031 0.5675 24.9219 0 25 L 0 26 L 5.1958 26 L 5.1958 25 C 4.3509 24.9375 3.8212 24.8594 3.6194 24.7344 C 3.2537 24.5469 3.0772 24.25 3.0772 23.8281 C 3.0772 23.5156 3.178 23.125 3.405 22.6406 L 3.9473 21 L 10.5556 21 L 11.1988 22.8906 ZM 4.2752 20 L 7.2263 11.0625 L 10.2277 20 L 4.2752 20 Z" className="shadow"></path>
        <path d="M 24.8125 24.5 C 25.25 24.8438 25.875 25 26.6719 25 C 27.3281 25 27.9375 24.8438 28.4688 24.5313 C 29 24.2188 29.5 23.7031 30 23 L 29 23 C 28.6406 23 28.4063 22.9688 28.3125 22.8906 C 28.2031 22.8281 28.125 22.7031 28.0781 22.5469 C 28.0156 22.3906 28 22.0156 28 21.4063 L 28 16.2656 C 28 14.8438 27.9219 13.9375 27.7969 13.5313 C 27.5625 12.9063 27.0625 12.3281 26.3125 11.7969 C 25.5625 11.2656 24.5313 11 23.25 11 C 22.1719 11 21.1406 11.1563 20.1563 11.4375 C 19.1563 11.7344 18.3906 12.1563 17.8281 12.7031 C 17.2656 13.25 17 13.8125 17 14.4063 C 17 14.8438 17.2031 15.2188 17.625 15.5313 C 18.0313 15.8438 18.5469 16 19.1719 16 C 19.7344 15.9219 20.2031 15.7656 20.5625 15.5156 C 20.9219 15.2656 21.1094 14.9531 21.1094 14.5469 C 21.1094 14.2188 20.9219 13.875 20.5469 13.5156 C 20.2656 13.2656 20.1406 13.0625 20.1406 12.875 C 20.1406 12.6875 20.2656 12.5156 20.5156 12.3594 C 20.9219 12.125 21.4531 12 22.1094 12 C 22.5 12 22.8594 12.0938 23.1719 12.2813 C 23.4844 12.4688 23.7031 12.6719 23.8281 12.9219 C 23.9375 13.1719 24 13.7813 24 14.7344 L 24 16 C 21.0625 17.4063 19.1719 18.5469 18.2969 19.3906 C 17.4219 20.2344 17 21.2031 17 22.2656 C 17 23.0469 17.25 23.7031 17.75 24.2188 C 18.25 24.75 18.875 25 19.6406 25 C 20.9219 25 22.375 24.3438 24 23 C 24.0938 23.6719 24.3594 24.1719 24.8125 24.5 ZM 22.4063 23 C 22 23 21.6719 22.8438 21.4531 22.5313 C 21.1406 22.1406 21 21.6719 21 21.1406 C 21 20.5156 21.1719 19.9063 21.5313 19.2813 C 22.0625 18.3594 22.8906 17.4844 24 16.6719 L 24 22 C 23.3906 22.6719 22.8594 23 22.4063 23 ZM 11.1988 21.8906 C 11.4258 22.4063 11.5393 22.7031 11.5519 22.7656 C 11.6024 22.9219 11.6276 23.0625 11.6276 23.2031 C 11.6276 23.4375 11.5393 23.6094 11.3628 23.7344 C 11.1105 23.9219 10.6691 24 10.0512 24 L 9.7359 24 L 9.7359 25 L 17 25 L 17 24 C 16.5082 23.9688 16.1298 23.8438 15.865 23.6094 C 15.5119 23.3281 15.0579 22.6094 14.503 21.4844 L 8.9162 5 L 8.109 5 L 2.7871 21.0938 C 2.2322 22.2344 1.7782 22.9844 1.4125 23.3438 C 1.0341 23.7031 0.5675 23.9219 0 24 L 0 25 L 5.1958 25 L 5.1958 24 C 4.3509 23.9375 3.8212 23.8594 3.6194 23.7344 C 3.2537 23.5469 3.0772 23.25 3.0772 22.8281 C 3.0772 22.5156 3.178 22.125 3.405 21.6406 L 3.9473 20 L 10.5556 20 L 11.1988 21.8906 ZM 4.2752 19 L 7.2263 10.0625 L 10.2277 19 L 4.2752 19 Z" className="icon"></path>
        <path opacity="0.102" d="M 20.1563 12.4375 L 20.575 12.325 C 20.9731 12.1121 21.485 12 22.1094 12 C 22.2315 12 22.3495 12.0067 22.465 12.025 C 22.7236 12.0068 22.9859 12 23.25 12 C 24.5313 12 25.5625 12.2656 26.3125 12.7969 C 27.0625 13.3281 27.5625 13.9063 27.7969 14.5313 C 27.9219 14.9375 28 15.8438 28 17.2656 L 28 16.2656 C 28 14.8438 27.9219 13.9375 27.7969 13.5313 C 27.5625 12.9063 27.0625 12.3281 26.3125 11.7969 C 25.5625 11.2656 24.5313 11 23.25 11 C 22.1719 11 21.1406 11.1563 20.1563 11.4375 C 19.1563 11.7344 18.3906 12.1563 17.8281 12.7031 C 17.2656 13.25 17 13.8125 17 14.4063 C 17 14.5639 17.0265 14.7136 17.08 14.855 C 17.1967 14.4604 17.4426 14.078 17.8281 13.7031 C 18.3906 13.1563 19.1563 12.7344 20.1563 12.4375 ZM 20.5469 13.5156 L 20.435 13.41 C 20.2376 13.5519 20.1406 13.7084 20.1406 13.875 C 20.1406 14.0625 20.2656 14.2656 20.5469 14.5156 C 20.7438 14.7043 20.8865 14.8899 20.98 15.07 C 21.064 14.9152 21.1094 14.7411 21.1094 14.5469 C 21.1094 14.2188 20.9219 13.875 20.5469 13.5156 ZM 29.155 24 C 29.4397 23.727 29.7207 23.3927 30 23 L 29 23 C 28.6406 23 28.4063 22.9688 28.3125 22.8906 C 28.2031 22.8281 28.125 22.7031 28.0781 22.5469 C 28.0156 22.3906 28 22.0156 28 21.4063 L 28 22.4063 C 28 23.0156 28.0156 23.3906 28.0781 23.5469 C 28.125 23.7031 28.2031 23.8281 28.3125 23.8906 C 28.4063 23.9688 28.6406 24 29 24 L 29.155 24 ZM 23.005 17.485 C 23.3064 17.2073 23.6383 16.9368 24 16.6719 L 24 16 C 21.0625 17.4063 19.1719 18.5469 18.2969 19.3906 C 17.4219 20.2344 17 21.2031 17 22.2656 C 17 22.4327 17.0121 22.5945 17.035 22.75 C 17.1516 21.8885 17.5656 21.0957 18.2969 20.3906 C 19.0688 19.6463 20.6309 18.6699 23.005 17.485 ZM 22.4063 23 C 22 23 21.6719 22.8438 21.4531 22.5313 C 21.2373 22.2615 21.1022 21.9542 21.04 21.615 C 21.0124 21.7893 21 21.9645 21 22.1406 C 21 22.6719 21.1406 23.1406 21.4531 23.5313 C 21.6719 23.8438 22 24 22.4063 24 C 22.4966 24 22.5885 23.9862 22.685 23.96 C 23.1096 23.6923 23.5489 23.373 24 23 L 24 22 C 23.3906 22.6719 22.8594 23 22.4063 23 ZM 5.1958 25 L 5.1958 24 C 4.3509 23.9375 3.8212 23.8594 3.6194 23.7344 C 3.3999 23.6218 3.2509 23.4698 3.165 23.275 C 3.1069 23.482 3.0772 23.6656 3.0772 23.8281 C 3.0772 24.25 3.2537 24.5469 3.6194 24.7344 C 3.8212 24.8594 4.3509 24.9375 5.1958 25 ZM 17 25 L 17 24 C 16.5082 23.9688 16.1298 23.8438 15.865 23.6094 C 15.5119 23.3281 15.0579 22.6094 14.503 21.4844 L 8.9162 5 L 8.109 5 L 2.7871 21.0938 C 2.2322 22.2344 1.7782 22.9844 1.4125 23.3438 C 1.0341 23.7031 0.5675 23.9219 0 24 L 0 25 C 0.5675 24.9219 1.0341 24.7031 1.4125 24.3438 C 1.7782 23.9844 2.2322 23.2344 2.7871 22.0938 L 8.109 6 L 8.9162 6 L 14.503 22.4844 C 15.0579 23.6094 15.5119 24.3281 15.865 24.6094 C 16.1298 24.8438 16.5082 24.9688 17 25 ZM 11.5 23.61 C 11.4628 23.6567 11.4161 23.6966 11.3628 23.7344 C 11.1105 23.9219 10.6691 24 10.0512 24 L 9.7359 24 L 9.7359 25 L 10.0512 25 C 10.6691 25 11.1105 24.9219 11.3628 24.7344 C 11.5393 24.6094 11.6276 24.4375 11.6276 24.2031 C 11.6276 24.0625 11.6024 23.9219 11.5519 23.7656 L 11.5 23.61 ZM 9.89 19 L 4.605 19 L 4.2752 20 L 10.2277 20 L 9.89 19 Z" className="highlight"></path>
    </g>
</svg>