<?xml version="1.0" encoding="iso-8859-1"?>
<!DOCTYPE svg PUBLIC "-//W3C//DTD SVG 1.1//EN" "http://www.w3.org/Graphics/SVG/1.1/DTD/svg11.dtd">
<svg xmlns="http://www.w3.org/2000/svg" xmlns:xlink= "http://www.w3.org/1999/xlink" id="grooves" viewBox="0 0 30 30" width="30" height="30">
    <g>
        <path d="M 1 15.5 C 1 20.1945 7.2679 24 15 24 C 22.7321 24 29 20.1945 29 15.5 C 29 12.3537 26.1846 9.6047 22 8.135 L 22 11 L 18 11 L 18 7.195 C 17.0335 7.0673 16.0298 7 15 7 C 13.9702 7 12.9665 7.0669 12 7.195 L 12 11 L 8 11 L 8 8.135 C 3.8154 9.6048 1 12.3537 1 15.5 Z" className="shadow"></path>
        <path d="M 1 14.5 C 1 19.1945 7.2679 23 15 23 C 22.7321 23 29 19.1945 29 14.5 C 29 11.3537 26.1846 8.6047 22 7.135 L 22 10 L 18 10 L 18 6.195 C 17.0335 6.0673 16.0298 6 15 6 C 13.9702 6 12.9665 6.0669 12 6.195 L 12 10 L 8 10 L 8 7.135 C 3.8154 8.6048 1 11.3537 1 14.5 Z" className="icon"></path>
        <path opacity="0.102" d="M 12 10 L 8 10 L 8 11 L 12 11 L 12 10 ZM 18 7.195 L 18 6.195 C 17.0335 6.0673 16.0298 6 15 6 C 13.9702 6 12.9665 6.0669 12 6.195 L 12 7.195 C 12.9665 7.0669 13.9702 7 15 7 C 16.0298 7 17.0335 7.0673 18 7.195 ZM 22 10 L 18 10 L 18 11 L 22 11 L 22 10 ZM 28.975 15 C 28.9908 14.8346 29 14.6678 29 14.5 C 29 11.3537 26.1846 8.6047 22 7.135 L 22 8.135 C 25.9614 9.5263 28.6945 12.0641 28.975 15 ZM 1 14.5 C 1 14.6678 1.0092 14.8346 1.025 15 C 1.3055 12.0641 4.0386 9.5264 8 8.135 L 8 7.135 C 3.8154 8.6048 1 11.3537 1 14.5 Z" className="highlight"></path>
    </g>
</svg>