<?xml version="1.0" encoding="iso-8859-1"?>
<!DOCTYPE svg PUBLIC "-//W3C//DTD SVG 1.1//EN" "http://www.w3.org/Graphics/SVG/1.1/DTD/svg11.dtd">
<svg xmlns="http://www.w3.org/2000/svg" xmlns:xlink= "http://www.w3.org/1999/xlink" id="metals" viewBox="0 0 30 30" width="30" height="30">
    <g>
        <path d="M 6 18 L 12 18 L 12 19 L 6.665 19 L 5.4063 22.9688 L 4.4063 22.9688 L 6 18 ZM 5.1851 16 C 4.6328 16 4.0492 16.4266 3.8816 16.9528 L 1.3034 25.0472 C 1.1358 25.5734 1.4476 26 1.9999 26 L 18.0817 26 L 14.4468 16 L 5.1851 16 ZM 10 6 L 18 6 L 18 7 L 10.665 7 L 9 12 L 8 12 L 10 6 ZM 9 4 C 8.4477 4 7.8643 4.4267 7.697 4.953 L 5.1231 13.047 C 4.9557 13.5733 5.2677 14 5.82 14 L 23.0899 14 C 23.6422 14 23.9204 13.5856 23.7114 13.0744 L 20.3786 4.9256 C 20.1695 4.4144 19.5524 4 19.0001 4 L 9 4 ZM 19.635 26 L 28 26 C 28.5523 26 28.8305 25.5856 28.6214 25.0744 L 25.2885 16.9256 C 25.0795 16.4144 24.4623 16 23.91 16 L 16 16 L 16.725 18 L 22 18 L 22 19 L 17.09 19 L 19.635 26 Z" className="shadow"></path>
        <path d="M 6 17 L 12 17 L 12 18 L 6.665 18 L 5.4063 21.9688 L 4.4063 21.9688 L 6 17 ZM 5.1851 15 C 4.6328 15 4.0492 15.4266 3.8816 15.9528 L 1.3034 24.0472 C 1.1358 24.5734 1.4476 25 1.9999 25 L 18.0817 25 L 14.4468 15 L 5.1851 15 ZM 10 5 L 18 5 L 18 6 L 10.665 6 L 9 11 L 8 11 L 10 5 ZM 9 3 C 8.4477 3 7.8643 3.4267 7.697 3.953 L 5.1231 12.047 C 4.9557 12.5733 5.2677 13 5.82 13 L 23.0899 13 C 23.6422 13 23.9204 12.5856 23.7114 12.0744 L 20.3786 3.9256 C 20.1695 3.4144 19.5524 3 19.0001 3 L 9 3 ZM 19.635 25 L 28 25 C 28.5523 25 28.8305 24.5856 28.6214 24.0744 L 25.2885 15.9256 C 25.0795 15.4144 24.4623 15 23.91 15 L 16 15 L 16.725 17 L 22 17 L 22 18 L 17.09 18 L 19.635 25 Z" className="icon"></path>
        <path opacity="0.102" d="M 12 18 L 6.665 18 L 5.4063 21.9688 L 4.725 21.97 L 4.4063 22.9688 L 5.4063 22.9688 L 6.665 19 L 12 19 L 12 18 ZM 5.1851 15 C 4.6328 15 4.0492 15.4266 3.8816 15.9528 L 1.3034 24.0472 C 1.2157 24.3225 1.2594 24.5711 1.4 24.745 L 3.8816 16.9528 C 4.0492 16.4266 4.6328 16 5.1851 16 L 14.4468 16 L 17.72 25 L 18.0817 25 L 14.4468 15 L 5.1851 15 ZM 18 6 L 10.665 6 L 9 11 L 8.335 11 L 8 12 L 9 12 L 10.665 7 L 18 7 L 18 6 ZM 9 3 C 8.4477 3 7.8643 3.4267 7.697 3.953 L 5.1231 12.047 C 5.0356 12.3222 5.0797 12.571 5.22 12.745 L 7.697 4.953 C 7.8643 4.4267 8.4477 4 9 4 L 19.0001 4 C 19.5524 4 20.1695 4.4144 20.3786 4.9256 L 23.61 12.82 C 23.7891 12.6516 23.8367 12.381 23.7114 12.0744 L 20.3786 3.9256 C 20.1695 3.4144 19.5524 3 19.0001 3 L 9 3 ZM 22 18 L 17.09 18 L 17.455 19 L 22 19 L 22 18 ZM 28.52 24.82 C 28.6991 24.6516 28.7468 24.381 28.6214 24.0744 L 25.2885 15.9256 C 25.0795 15.4144 24.4623 15 23.91 15 L 16 15 L 16.36 16 L 23.91 16 C 24.4623 16 25.0795 16.4144 25.2885 16.9256 L 28.52 24.82 Z" className="highlight"></path>
    </g>
</svg>